<svg viewBox="0 0 27 26" fill="none" xmlns="http://www.w3.org/2000/svg">
<path fill-rule="evenodd" clip-rule="evenodd" d="M4.77996 5.31827H25.8906C26.6121 5.31827 27.1411 5.99896 26.9664 6.69951L24.7134 15.7339C24.5958 16.2053 24.1865 16.5456 23.7027 16.574L5.98189 17.6181C6.2987 18.3604 7.03271 18.8698 7.875 18.8698H20.2585C22.1121 18.8698 23.6202 20.3817 23.6202 22.24C23.6202 24.0984 22.1121 25.6103 20.2585 25.6103C17.9357 25.6103 16.3027 23.2875 17.0974 21.0931H11.0286C11.8242 23.2903 10.1877 25.6103 7.86751 25.6103C5.07201 25.6103 3.50178 22.3667 5.22033 20.1665C4.26715 19.4095 3.71383 18.2955 3.62333 17.2689C2.21982 1.59229 2.28031 2.26805 2.41161 3.73467L2.41215 3.74074C2.50048 4.72745 2.6199 6.06139 2.348 3.02459H1.10884C0.496445 3.02459 0 2.5269 0 1.91295C0 1.29901 0.496445 0.801315 1.10884 0.801315H3.36175C3.93571 0.801315 4.41483 1.24047 4.46616 1.81359L4.77996 5.31827ZM6.72351 22.24C6.72351 22.8725 7.23674 23.387 7.86751 23.387C8.49833 23.387 9.01157 22.8725 9.01157 22.24C9.01157 21.6076 8.49833 21.0931 7.86751 21.0931C7.23674 21.0931 6.72351 21.6076 6.72351 22.24ZM20.2584 23.387C19.6276 23.387 19.1143 22.8725 19.1143 22.24C19.1143 21.6076 19.6276 21.0931 20.2584 21.0931C20.8892 21.0931 21.4025 21.6076 21.4025 22.24C21.4025 22.8725 20.8892 23.387 20.2584 23.387ZM5.68341 15.4086L22.7594 14.4025L24.4705 7.5415H4.97903L5.68341 15.4086Z" fill="white"/>
</svg>
