<svg viewBox="0 0 25 26" fill="none" xmlns="http://www.w3.org/2000/svg">
<mask id="mask0_202_7" style="mask-type:alpha" maskUnits="userSpaceOnUse" x="0" y="0" width="25" height="26">
<path fill-rule="evenodd" clip-rule="evenodd" d="M0 0.803986H24.9957V25.6103H0" fill="white"/>
</mask>
<g mask="url(#mask0_202_7)">
<path fill-rule="evenodd" clip-rule="evenodd" d="M9.99015 17.3376C13.6445 17.3389 16.6604 14.3848 16.6652 10.7992C16.6702 7.09179 13.7128 4.10856 10.0302 4.10617C6.32635 4.10378 3.33339 7.05623 3.33191 10.7138C3.33052 14.368 6.31432 17.3363 9.99015 17.3376ZM15.7954 18.8092C11.1627 22.016 5.27367 20.7888 2.15923 16.8778C-0.962804 12.9572 -0.67336 7.411 2.8596 3.77603C6.30043 0.235791 11.9509 -0.193771 15.9729 2.76759C20.1506 5.84363 21.422 11.9045 18.1575 16.4743C18.2132 16.5322 18.2697 16.5933 18.3288 16.652C20.3799 18.6879 22.433 20.7217 24.4818 22.7599C25.3964 23.6699 25.0388 25.1624 23.8161 25.5305C23.1569 25.729 22.5861 25.5499 22.1033 25.0705C20.5052 23.4837 18.9063 21.8978 17.3078 20.3115C16.8064 19.8137 16.3053 19.3156 15.7954 18.8092Z" fill="white"/>
</g>
</svg>
