<svg viewBox="0 0 27 28" fill="none" xmlns="http://www.w3.org/2000/svg">
<path fill-rule="evenodd" clip-rule="evenodd" d="M17.9159 14.9364C19.8254 15.5903 21.5756 16.6705 23.046 18.1296C25.5957 20.66 27 24.0242 27 27.6026H24.8906C24.8906 21.3698 19.7808 16.2991 13.5 16.2991C7.21918 16.2991 2.10938 21.3698 2.10938 27.6026H0C0 24.0242 1.40426 20.66 3.95408 18.1296C5.42447 16.6705 7.17462 15.5903 9.08413 14.9364C7.03893 13.5386 5.69531 11.1993 5.69531 8.55401C5.69531 4.2834 9.19651 0.80896 13.5 0.80896C17.8035 0.80896 21.3047 4.2834 21.3047 8.55401C21.3047 11.1993 19.9611 13.5386 17.9159 14.9364ZM7.80469 8.554C7.80469 11.6704 10.3596 14.2058 13.5 14.2058C16.6404 14.2058 19.1953 11.6704 19.1953 8.554C19.1953 5.43757 16.6404 2.90221 13.5 2.90221C10.3596 2.90221 7.80469 5.43757 7.80469 8.554Z" fill="white"/>
</svg>
