<svg xmlns="http://www.w3.org/2000/svg" xmlns:xlink="http://www.w3.org/1999/xlink" style="width: 0; height: 0; visibility: hidden; position: absolute;" aria-hidden="true">

  <symbol  viewBox='0 0 512 512' id='facebook'>
    <switch><g fill="var(--spriteColor, #6B463C"><path d="M507 257a250 250 0 11-500 0 250 250 0 01500 0zm0 0"></path><path fill="var(--bgColor, #fff)" d="M319.8 266.8h-44.6v163.4h-67.5V266.8h-32.2v-57.5h32.2v-37.1c0-26.6 12.6-68.2 68.1-68.2l50 .2V160h-36.2c-6 0-14.4 3-14.4 15.6v33.8h50.6l-6 57.4zm0 0"></path></g></switch>
  
  </symbol><symbol  viewBox='0 0 512 512' id='instagram'>
    <switch><g><g fill="var(--spriteColor, #6B463C"><path d="M331.5 140h-149a43.2 43.2 0 00-43.1 43v149a43.2 43.2 0 0043.1 43.3h149a43.2 43.2 0 0043.2-43.2V183a43.2 43.2 0 00-43.2-43.2zM257 335a77.6 77.6 0 010-154.9 77.6 77.6 0 010 155zm80-138.9a18.3 18.3 0 110-36.6 18.3 18.3 0 010 36.6zm0 0"></path><path d="M257 212.9a44.8 44.8 0 10.1 89.5 44.8 44.8 0 00-.1-89.5zm0 0"></path><path d="M257 6.9a250 250 0 100 500 250 250 0 000-500zm150.4 325.2a76 76 0 01-75.9 75.9h-149a76 76 0 01-75.9-76V183a76 76 0 0175.9-75.8h149a76 76 0 0175.9 75.9v149zm0 0"></path></g></g></switch>
  
  </symbol><symbol  viewBox='0 0 512 512' id='twitter'>
    <switch><g><path fill="var(--spriteColor, #5FA9DD" d="M507 256.9a250 250 0 11-500 0 250 250 0 01500 0zm0 0"></path><path fill="var(--bgColor, #fff)" d="M410.1 186.6a119.4 119.4 0 01-34.3 9.4 60 60 0 0026.3-33.1 120.1 120.1 0 01-38 14.5 59.7 59.7 0 00-101.8 54.5 169.6 169.6 0 01-123.2-62.5 59.8 59.8 0 0018.5 79.8c-9.8-.3-19-3-27-7.4v.7c0 29 20.6 53.1 47.9 58.6a59.5 59.5 0 01-27 1 59.8 59.8 0 0055.8 41.5 119.8 119.8 0 01-88.4 24.8c26.4 17 57.8 26.8 91.6 26.8 109.9 0 170-91 170-170 0-2.6 0-5.2-.2-7.7 11.7-8.4 21.8-19 29.8-31zm0 0"></path></g></switch>
  
  </symbol><symbol  viewBox='0 0 512 512' id='whatsapp'>
    <path d="M256 0a256 256 0 110 512 256 256 0 110-512z" fill= "var(--spriteColor, #0dc143"></path><path d="M370.7 140.9a147.5 147.5 0 00-251.8 104.9c0 25.8 7.3 50.9 19.4 73.5l-21 76.7 78.3-20.2c21.8 12.1 46 17.8 70.2 17.8a148.5 148.5 0 00104.9-252.7zM266.5 368.6c-21.8 0-43.6-5.7-62.2-17l-4.8-2.4-46.8 12.1 12.1-46-3.2-4.8a122 122 0 0139.6-168.7 122 122 0 01168.7 39.6 122 122 0 01-39.6 168.7 118.7 118.7 0 01-63.8 18.5zm71.1-89.6l-8.9-4s-12.9-5.7-21-9.7c-.8 0-1.6-.8-2.4-.8-2.4 0-4 .8-5.7 1.6l-12.1 13.7a4.4 4.4 0 01-4 2.4h-.8a6 6 0 01-3.2-1.6l-4-1.6c-8.9-4-17-8.9-23.4-15.3-1.6-1.6-4-3.2-5.7-4.8a88 88 0 01-15.3-19.4l-.8-1.6c-.8-.8-.8-1.6-1.6-3.2 0-1.6 0-3.2.8-4 0 0 3.2-4 5.7-6.5 1.6-1.6 2.4-4 4-5.7 1.6-2.4 2.4-5.7 1.6-8.1a328 328 0 00-12.9-30.7c-1.6-2.4-3.2-3.2-5.7-4h-8.9c-1.6 0-3.2.8-4.8.8l-.8.8c-1.6.8-3.2 2.4-4.8 3.2-1.6 1.6-2.4 3.2-4 4.8a40.8 40.8 0 00-8.9 25c0 6.5 1.6 12.9 4 18.6l.8 2.4a136 136 0 0029.9 41.2l3.2 3.2c2.4 2.4 4.8 4 6.5 6.5 17 14.5 36.3 25 58.1 30.7 2.4.8 5.7.8 8.1 1.6h8.1c4 0 8.9-1.6 12.1-3.2 2.4-1.6 4-1.6 5.7-3.2l1.6-1.6c1.6-1.6 3.2-2.4 4.8-4 1.6-1.6 3.2-3.2 4-4.8 1.6-3.2 2.4-7.3 3.2-11.3v-5.7c-.1-.1-.9-.9-2.5-1.7z" fill="var(--bgColor, #fff)"></path>
  </symbol></svg>