<svg viewBox="0 0 27 27" fill="none" xmlns="http://www.w3.org/2000/svg">
<path fill-rule="evenodd" clip-rule="evenodd" d="M6.69077 1.90766C6.69077 1.95531 6.69077 1.98879 6.69077 2.02227C6.69077 5.70318 6.68983 9.38423 6.69226 13.0651C6.69253 13.4402 6.69941 13.8161 6.72776 14.1898C6.77798 14.8508 6.94106 15.4876 7.19581 16.0995C7.81222 17.5801 8.82661 18.7072 10.227 19.4851C10.8663 19.8402 11.551 20.0746 12.2707 20.2047C12.7864 20.298 13.307 20.3292 13.8296 20.2997C15.0257 20.2319 16.1324 19.8798 17.1369 19.2246C18.444 18.3721 19.3559 17.206 19.8719 15.733C20.0668 15.1767 20.1805 14.6028 20.2194 14.0142C20.3147 12.5732 19.9961 11.2305 19.2397 10.0002C18.4472 8.71125 17.3398 7.78893 15.9337 7.22841C15.3925 7.01268 14.831 6.87458 14.2519 6.81059C12.6589 6.63482 11.1833 6.97245 9.82588 7.82511C9.8113 7.83429 9.7955 7.84172 9.77296 7.85387C9.77161 7.82322 9.76958 7.7996 9.76958 7.77597C9.76945 5.40672 9.76972 3.03747 9.76783 0.668223C9.76783 0.606528 9.78781 0.583308 9.8441 0.567783C10.4515 0.400653 11.0671 0.273888 11.6912 0.189783C12.4508 0.0873178 13.2144 0.0547828 13.98 0.0821878C14.5961 0.104193 15.2081 0.170343 15.8158 0.277668C17.3645 0.550908 18.8234 1.07525 20.1815 1.86689C22.6273 3.29222 24.4574 5.28725 25.6683 7.84739C26.1665 8.90106 26.5108 10.0047 26.7173 11.1512C26.8889 12.1043 26.9559 13.0657 26.9184 14.0327C26.8297 16.3261 26.2026 18.4624 25.0267 20.4348C24.2502 21.7371 23.2778 22.8742 22.117 23.8499C21.0819 24.7196 19.9413 25.4171 18.6967 25.9444C17.8712 26.2942 17.0183 26.5565 16.1397 26.7343C15.106 26.9434 14.061 27.0322 13.0077 26.9896C12.5523 26.9712 12.0967 26.9288 11.6443 26.8724C10.4606 26.7247 9.32138 26.4054 8.22356 25.9404C6.83887 25.3536 5.58607 24.5576 4.46881 23.5509C3.00703 22.2338 1.88194 20.6733 1.09948 18.867C0.673554 17.8834 0.373449 16.8627 0.192684 15.806C0.0370287 14.896 -0.0272313 13.9792 0.0105687 13.0578C0.138954 9.93084 1.21598 7.16996 3.2399 4.78329C4.20556 3.6447 5.34023 2.70227 6.6253 1.94168C6.64204 1.93182 6.65986 1.92359 6.69077 1.90766Z" fill="#FFC700"/>
<path fill-rule="evenodd" clip-rule="evenodd" d="M12.9986 18C10.7914 17.9993 8.99763 16.2048 9 13.9963C9.00237 11.7722 10.8168 9.96997 13.0573 10.0004C15.2296 10.0299 17.0009 11.7971 17 14.0058C16.9991 16.2094 15.2032 18.0007 12.9986 18Z" fill="#FFC700"/>
</svg>
